<svg width="42" height="33" viewBox="0 0 42 33" fill="none" xmlns="http://www.w3.org/2000/svg">
<path fill-rule="evenodd" clip-rule="evenodd" d="M39.6558 9.9475L37.6433 7.935C36.6843 6.96515 35.3845 6.40809 34.0208 6.3825H26.3542V5.27083C26.3542 2.35983 23.9943 0 21.0833 0H5.27083C4.47692 0 3.83333 0.643591 3.83333 1.4375C3.83333 2.23141 4.47692 2.875 5.27083 2.875H21.0258C22.349 2.875 23.4217 3.94765 23.4217 5.27083V17.4033C23.4217 18.1972 24.0653 18.8408 24.8592 18.8408C25.6531 18.8408 26.2967 18.1972 26.2967 17.4033V9.2575H33.9633C34.5985 9.25498 35.2074 9.511 35.65 9.96667L37.6625 11.8833C37.937 12.1679 38.1348 12.5174 38.2375 12.8992H30.1875C29.3936 12.8992 28.75 13.5428 28.75 14.3367C28.75 15.1306 29.3936 15.7742 30.1875 15.7742H38.3333V23.92C38.3594 24.5719 38.1186 25.2062 37.6664 25.6764C37.2143 26.1467 36.5899 26.4122 35.9375 26.4117H33.81C33.3383 24.2003 31.3849 22.6196 29.1238 22.6196C26.8626 22.6196 24.9092 24.2003 24.4375 26.4117H14.2025C13.6866 24.1259 11.5819 22.557 9.24395 22.7157C6.90603 22.8743 5.03253 24.7132 4.8302 27.0477C4.62788 29.3822 6.15709 31.516 8.43286 32.0745C10.7086 32.633 13.0519 31.4496 13.9533 29.2867H24.7058C25.4529 31.0657 27.1942 32.223 29.1238 32.223C31.0533 32.223 32.7946 31.0657 33.5417 29.2867H35.9375C38.8485 29.2867 41.2083 26.9268 41.2083 24.0158V13.685C41.2109 12.2818 40.6519 10.9359 39.6558 9.9475ZM9.52583 28.98C8.88236 29.0114 8.2849 28.6469 8.01839 28.0604C7.75188 27.4739 7.87029 26.7841 8.31716 26.32C8.76403 25.856 9.44884 25.7116 10.045 25.9558C10.6412 26.2 11.0279 26.7833 11.0208 27.4275C11.0214 28.263 10.3607 28.9491 9.52583 28.98ZM27.6604 28.0053C27.9025 28.5949 28.4768 28.98 29.1142 28.98C29.9747 28.9801 30.6753 28.288 30.6858 27.4275C30.6936 26.7901 30.3157 26.2112 29.729 25.9619C29.1424 25.7126 28.4633 25.8423 28.0098 26.2902C27.5563 26.7381 27.4183 27.4156 27.6604 28.0053Z" fill="white"/>
<path d="M18.2083 10.81C18.198 10.0204 17.5604 9.38282 16.7708 9.3725H1.4375C0.643591 9.3725 0 10.0161 0 10.81C0 11.6039 0.643591 12.2475 1.4375 12.2475H16.7708C17.5604 12.2372 18.198 11.5996 18.2083 10.81Z" fill="white"/>
<path d="M16.7708 15.1225H7.1875C6.39359 15.1225 5.75 15.7661 5.75 16.56C5.75 17.3539 6.39359 17.9975 7.1875 17.9975H16.7708C17.5647 17.9975 18.2083 17.3539 18.2083 16.56C18.2083 15.7661 17.5647 15.1225 16.7708 15.1225Z" fill="white"/>
</svg>
